<svg id="Layer_2" data-name="Layer 2" xmlns="http://www.w3.org/2000/svg" viewBox="0 0 114 59"><defs><style>.cls-1{fill:#18a6e1;}.cls-2{fill:#212f3c;}.cls-2,.cls-3{fill-rule:evenodd;}.cls-3{fill:#fff;}</style></defs><title>whiteArtboard 6 copy 3</title><rect class="cls-1" x="1" y="1" width="110" height="55" rx="6" ry="6"/><path class="cls-2" d="M33,34.39v.14a.66.66,0,0,0,.2.36,32.73,32.73,0,0,0,23,9.45c6.35,0,13.73-2.15,18.82-6.2a.74.74,0,1,0-.74-1.28,42.94,42.94,0,0,1-17.55,3.87,43.69,43.69,0,0,1-23-6.58.65.65,0,0,0-.33-.1.39.39,0,0,0-.39.34"/><path class="cls-2" d="M70.84,35a.64.64,0,0,0-.29.42v.09c0,.15.16.26.42.22,1.63-.21,5.29-.68,5.94.22s-.73,4.58-1.34,6.23c-.19.49.21.7.63.32,2.73-2.45,3.44-7.59,2.88-8.33A5,5,0,0,0,76,33.51,8.68,8.68,0,0,0,70.84,35"/><path class="cls-3" d="M62.61,29.67a.79.79,0,0,1-.28,0,.46.46,0,0,1-.18-.13,1.3,1.3,0,0,1-.15-.27l-2.88-7.57L59,21.42a.42.42,0,0,1,0-.18c0-.17.11-.26.34-.26H61a.52.52,0,0,1,.59.44l1.73,6,1.77-6a.52.52,0,0,1,.59-.44h1.64c.22,0,.34.09.34.26a.65.65,0,0,1,0,.18l-.08.24-2.89,7.57a1,1,0,0,1-.14.27.46.46,0,0,1-.18.13.69.69,0,0,1-.28,0Zm6.69,0a.36.36,0,0,1-.42-.42V21.41a.46.46,0,0,1,.1-.34A.47.47,0,0,1,69.3,21h1.62a.47.47,0,0,1,.33.09.51.51,0,0,1,.09.34v7.84a.47.47,0,0,1-.09.32.42.42,0,0,1-.33.1Zm.81-10a1.45,1.45,0,0,1-1-.36,1.4,1.4,0,0,1,0-1.94,1.65,1.65,0,0,1,2.06,0,1.4,1.4,0,0,1,0,1.94,1.45,1.45,0,0,1-1,.36Zm6.42,10.22a3.21,3.21,0,0,1-1.9-.57,3.65,3.65,0,0,1-1.24-1.58A5.85,5.85,0,0,1,73,25.37,5.35,5.35,0,0,1,74,22a3.19,3.19,0,0,1,2.63-1.26,3.63,3.63,0,0,1,2.31.76v-4a.42.42,0,0,1,.11-.33.45.45,0,0,1,.32-.09h1.61a.47.47,0,0,1,.33.09.42.42,0,0,1,.1.33V29.25a.36.36,0,0,1-.43.42H79.59a.51.51,0,0,1-.32-.08.57.57,0,0,1-.16-.29l-.1-.39a3.56,3.56,0,0,1-2.48.95ZM77.34,28a2.8,2.8,0,0,0,1.55-.48V23a3.26,3.26,0,0,0-1.67-.42,1.48,1.48,0,0,0-1.33.67,3.8,3.8,0,0,0-.44,2,3.58,3.58,0,0,0,.47,2,1.62,1.62,0,0,0,1.42.66Zm18.91,1.94a4.05,4.05,0,0,1-3.13-1.22A4.76,4.76,0,0,1,92,25.32a4.75,4.75,0,0,1,1.13-3.38,4.67,4.67,0,0,1,6.27,0,4.79,4.79,0,0,1,1.13,3.38,4.8,4.8,0,0,1-1.13,3.39,4.07,4.07,0,0,1-3.14,1.22Zm0-1.91Q98,28,98,25.32c0-1.79-.59-2.69-1.77-2.69s-1.77.9-1.77,2.69.59,2.7,1.77,2.7ZM87,26.1a6.08,6.08,0,0,1-1.63-.19,2.23,2.23,0,0,0,.67,1.6,2.56,2.56,0,0,0,1.72.49,6.58,6.58,0,0,0,.9-.06,12,12,0,0,0,1.21-.26l.1,0H90c.18,0,.28.13.28.38v.77a.72.72,0,0,1-.08.38.63.63,0,0,1-.29.19,7,7,0,0,1-2.56.46,4.15,4.15,0,0,1-3.14-1.13,4.51,4.51,0,0,1-1.1-3.26A4.86,4.86,0,0,1,84.25,22a4,4,0,0,1,3.11-1.23,3.57,3.57,0,0,1,2.41.75,2.54,2.54,0,0,1,.86,2,2.14,2.14,0,0,1-.93,1.89A4.83,4.83,0,0,1,87,26.1m.23-3.61c-1.05,0-1.66.66-1.83,2a7.38,7.38,0,0,0,1.47.13A2.25,2.25,0,0,0,88,24.34a.92.92,0,0,0,.38-.8c0-.7-.41-1.05-1.24-1.05"/><path class="cls-2" d="M15.54,22.6a3.18,3.18,0,0,0-1.66.46v4.48a3.16,3.16,0,0,0,1.66.46,1.6,1.6,0,0,0,1.4-.65,3.63,3.63,0,0,0,.45-2A3.75,3.75,0,0,0,17,23.25a1.6,1.6,0,0,0-1.41-.65Zm-4.13-1.19a.36.36,0,0,1,.42-.43h1.22a.45.45,0,0,1,.48.38l.11.44A3.69,3.69,0,0,1,14.87,21a3.78,3.78,0,0,1,1.47-.29,3.14,3.14,0,0,1,2.6,1.21,5.14,5.14,0,0,1,.95,3.26,6,6,0,0,1-.47,2.47,3.88,3.88,0,0,1-1.29,1.63,3.15,3.15,0,0,1-1.86.57A4.15,4.15,0,0,1,15,29.65,3.14,3.14,0,0,1,13.88,29v3.73a.47.47,0,0,1-.09.33.42.42,0,0,1-.33.1H11.83a.36.36,0,0,1-.42-.43V21.41Z"/><path class="cls-2" d="M23.89,22.28a4.71,4.71,0,0,1,1.28-1.07,2.68,2.68,0,0,1,1.27-.31h.24A.51.51,0,0,1,27,21a.44.44,0,0,1,.1.33v1.43a.5.5,0,0,1-.09.33.46.46,0,0,1-.33.1l-.31,0-.47,0a4.63,4.63,0,0,0-1,.12,4.13,4.13,0,0,0-.95.28v5.71a.5.5,0,0,1-.09.33.42.42,0,0,1-.33.1H22a.44.44,0,0,1-.32-.1.45.45,0,0,1-.1-.33V21.41a.42.42,0,0,1,.1-.33A.44.44,0,0,1,22,21h1.22a.45.45,0,0,1,.48.38l.22.92Z"/><path class="cls-2" d="M28.32,21.41a.36.36,0,0,1,.42-.43h1.63a.45.45,0,0,1,.33.1.47.47,0,0,1,.09.33v7.84a.5.5,0,0,1-.09.33.45.45,0,0,1-.33.1H28.74a.42.42,0,0,1-.32-.1.45.45,0,0,1-.1-.33V21.41Zm1.23-1.77a1.45,1.45,0,0,1-1-.36,1.4,1.4,0,0,1,0-1.94,1.45,1.45,0,0,1,1-.36,1.48,1.48,0,0,1,1,.36,1.4,1.4,0,0,1,0,1.94,1.48,1.48,0,0,1-1,.36Z"/><path class="cls-2" d="M35.14,21.82A7,7,0,0,1,36.75,21a4.44,4.44,0,0,1,1.49-.25,2.28,2.28,0,0,1,2.15,1.09A6.62,6.62,0,0,1,42,21a5,5,0,0,1,1.58-.25,2.44,2.44,0,0,1,1.83.66,2.52,2.52,0,0,1,.66,1.86v6a.44.44,0,0,1-.1.32.42.42,0,0,1-.33.1H44a.41.41,0,0,1-.32-.1.44.44,0,0,1-.11-.32V23.79c0-.77-.34-1.16-1-1.16a4.19,4.19,0,0,0-1.84.45v6.18a.49.49,0,0,1-.1.32.42.42,0,0,1-.33.1H38.68a.41.41,0,0,1-.32-.1.44.44,0,0,1-.11-.32V23.79c0-.77-.34-1.16-1-1.16a4.19,4.19,0,0,0-1.86.46v6.17a.44.44,0,0,1-.1.32.42.42,0,0,1-.33.1H33.31a.41.41,0,0,1-.32-.1.44.44,0,0,1-.1-.32V21.41a.42.42,0,0,1,.1-.33.41.41,0,0,1,.32-.1h1.22a.44.44,0,0,1,.47.38l.14.46Z"/><path class="cls-2" d="M51.66,22.45c-1.08,0-1.71.67-1.87,2a7.69,7.69,0,0,0,1.5.13,2.37,2.37,0,0,0,1.26-.26.94.94,0,0,0,.38-.81c0-.72-.42-1.07-1.27-1.07m-.23,3.67a6.86,6.86,0,0,1-1.68-.18,2.32,2.32,0,0,0,.69,1.63,2.69,2.69,0,0,0,1.77.49,7,7,0,0,0,.92-.06,10.35,10.35,0,0,0,1.24-.26l.11,0h.08c.19,0,.29.13.29.39v.78a.69.69,0,0,1-.08.38.61.61,0,0,1-.29.2,7.22,7.22,0,0,1-2.63.48,4.29,4.29,0,0,1-3.22-1.16,4.53,4.53,0,0,1-1.13-3.32A4.93,4.93,0,0,1,48.65,22a4.11,4.11,0,0,1,3.2-1.26,3.64,3.64,0,0,1,2.46.76,2.56,2.56,0,0,1,.89,2.05,2.2,2.2,0,0,1-1,1.93,5,5,0,0,1-2.82.65"/></svg>