<svg id="Layer_2" data-name="Layer 2" xmlns="http://www.w3.org/2000/svg" viewBox="0 0 114 59"><defs><style>.cls-1{fill:#d3b845;}.cls-2{fill:#231f20;}</style></defs><title>Artboard 7 copy 5</title><rect class="cls-1" x="0.95" y="1" width="110" height="55" rx="6" ry="6"/><path class="cls-2" d="M59.79,17.85s-3.73,14.07-4,15.57L51.68,17.85H44v21.6h5V23.57l4.4,15.88h4.65s4.3-15.38,4.4-15.84V39.44h5.06V17.85Z"/><path class="cls-2" d="M41.28,36V24.74c0-2.29,0-4.29-2.55-5.82a12.86,12.86,0,0,0-6.37-1.36c-1.36,0-6.41,0-8.45,3.7a6.75,6.75,0,0,0-.85,3.11h5.22a2.21,2.21,0,0,1,.51-1.5c.51-.68,1.66-1.36,3.78-1.36,4.19,0,3.57,4.23,3.57,4.23s-2.09,0-6.55.58c-2.06.25-5.31,1.06-6.84,4.12a6.46,6.46,0,0,0-.68,2.89C22.08,37,25,40,29.77,40a10,10,0,0,0,6.29-2.17c0,.3.09,1.15.13,1.66h5.18c-.09-3.44-.09-1.83-.09-3.44m-5.1-4.8a4.27,4.27,0,0,1-.3,1.91c-.55,1.28-2.38,2.47-5,2.47-2,0-3.44-.85-3.44-2.51,0-2.25,2.11-2.75,3.94-3,2.29-.29,4.77-.37,4.77-.37Z"/><path class="cls-2" d="M89.92,31.05H85c-.15.6-1.18,4.49-5,4.49h-.73c-2.83-.09-5.15-2.44-5.15-7.09,0-3.57,1.8-6.77,5.2-6.85h.69c3.52,0,4.76,3.69,4.83,3.91l4.94,0a10,10,0,0,0-10-8.36c-6.12,0-10.46,5-10.46,11.44,0,7.31,4.62,11.47,10.34,11.47,6.37,0,9.67-4.87,10.34-9"/></svg>