<svg id="Layer_2" data-name="Layer 2" xmlns="http://www.w3.org/2000/svg" viewBox="0 0 114 59"><defs><style>.cls-1{fill:#255056;}.cls-2{fill:#fff;fill-rule:evenodd;}</style></defs><title>Artboard 931</title><rect class="cls-1" x="1" y="1" width="110" height="55" rx="6" ry="6"/><path d="M20,33h0Z"/><path class="cls-2" d="M29.21,28.82v2.09h1.62a2.27,2.27,0,0,0,.53-.1,1.17,1.17,0,0,0,.46-.27l.12-.15a.94.94,0,0,0,.14-.43s0-.07,0-.07a.45.45,0,0,0,0-.05.91.91,0,0,0,0-.2.83.83,0,0,0-.16-.32l-.05-.06-.12-.11a1.28,1.28,0,0,0-.25-.14,1.9,1.9,0,0,0-.41-.12l-.24,0H29.21Z"/><path class="cls-2" d="M29.21,25.65v2h.91a2.63,2.63,0,0,0,.51-.08l.11,0a1.07,1.07,0,0,0,.4-.24.79.79,0,0,0,.18-.27,1,1,0,0,0,.07-.3c0-.07,0-.11,0-.11s0,0,0-.08a1,1,0,0,0-.09-.36.78.78,0,0,0-.14-.19.86.86,0,0,0-.26-.17,1.73,1.73,0,0,0-.57-.13H29.21Z"/><path class="cls-2" d="M16.19,28.82v2.09h1.62a2.28,2.28,0,0,0,.53-.1,1.18,1.18,0,0,0,.46-.27.86.86,0,0,0,.12-.15.93.93,0,0,0,.14-.43s0-.07,0-.07,0,0,0-.05a.85.85,0,0,0-.18-.52l-.05-.06-.12-.11a1.23,1.23,0,0,0-.25-.14,2,2,0,0,0-.41-.12l-.24,0H16.19Z"/><path class="cls-2" d="M16.19,25.65v2h.91a2.62,2.62,0,0,0,.51-.08l.11,0a1.09,1.09,0,0,0,.4-.24.78.78,0,0,0,.18-.27,1,1,0,0,0,.07-.3c0-.07,0-.11,0-.11a.66.66,0,0,0,0-.08.93.93,0,0,0-.09-.36.74.74,0,0,0-.14-.19.87.87,0,0,0-.26-.17,1.72,1.72,0,0,0-.57-.13H16.19Z"/><path class="cls-2" d="M45,24.44l-.15,0H44.8l-.26,0h-1l-.2,0h-.19l-.1,0-.13,0a4.69,4.69,0,0,0-.75.22l-.34.15-.26.14-.23.14-.13.09-.1.08-.2.17-.17.16-.14.14-.13.16-.14.18-.09.14-.06.1a3.75,3.75,0,0,0-.3.62,3.79,3.79,0,0,0-.22.88c0,.1,0,.2,0,.3s0,.16,0,.24,0,.12,0,.18,0,.12,0,.18v0c0,.07,0,.14,0,.21l0,.08,0,.17.06.21c0,.09.06.17.09.25a3.68,3.68,0,0,0,.18.37l.12.2.1.15.14.18.15.18.18.19,0,0,.16.15.13.11.14.1.18.12.21.13a4.15,4.15,0,0,0,.5.24l.21.08.22.07.41.1.36.06.38,0h.29l.66,0h0l.23,0,.33-.05.19,0,.28-.07.19-.05.21-.07.06,0,.13,0,.24-.1.18-.08.17-.08.07,0V30.06l-.05,0-.1.06-.29.17-.31.16c-.18.08-.35.16-.52.22a5.43,5.43,0,0,1-.86.23h-.09l-.2,0-.28,0h-.47l-.38,0a3.5,3.5,0,0,1-.63-.16l-.09,0-.06,0-.1,0-.21-.11-.1-.06-.1-.07L42,30.34l-.11-.1,0,0,0,0h0l0,0-.18-.2-.09-.11-.07-.11-.06-.1-.08-.15-.06-.13a2.3,2.3,0,0,1-.08-.22c0-.05,0-.11,0-.16a2.81,2.81,0,0,1-.07-.41s0-.09,0-.13,0-.11,0-.15,0-.06,0-.09a2.86,2.86,0,0,1,0-.31c0-.07,0-.15,0-.23l0-.17.05-.16,0-.11.07-.15.06-.11a2.22,2.22,0,0,1,.16-.25l.07-.09.1-.11.05-.05a3,3,0,0,1,.87-.6l.15-.06.15-.05.16-.05.15,0,.15,0,.17,0,.17,0h.78l.26,0,.21,0,.28.07.15,0,.18.06.12,0,.21.08.26.11.2.1.15.07.2.11.15.08V25l-.24-.09-.24-.09-.16-.06-.14,0-.17-.05-.13,0h0l-.13,0-.16,0-.1,0-.17,0-.18,0ZM37.89,23h11.3V33.59H37.89V23Z"/><path class="cls-2" d="M27.84,24.45v7.66h2.88a3.37,3.37,0,0,0,2.18-.74,1.91,1.91,0,0,0,0-2.71A2.53,2.53,0,0,0,31.81,28a2,2,0,0,0,.51-.36,1.58,1.58,0,0,0,.47-1.24,1.78,1.78,0,0,0-.54-1.28,2.56,2.56,0,0,0-1.93-.7Zm-3-1.49h11.3V33.59H24.87V23Z"/><path class="cls-2" d="M14.82,24.45v7.66H17.7a3.37,3.37,0,0,0,2.18-.74,1.92,1.92,0,0,0,0-2.71A2.52,2.52,0,0,0,18.79,28a2,2,0,0,0,.51-.36,1.57,1.57,0,0,0,.47-1.24,1.79,1.79,0,0,0-.54-1.28,2.56,2.56,0,0,0-1.93-.7Zm-3-1.49h11.3V33.59H11.85V23Z"/><path class="cls-2" d="M55.19,24.4h-.78l-3.3,7.72h1.12l1-2.26h3.26l1,2.26h1.13L55.19,24.4Zm-.4,1.69L56,28.86H53.64l1.15-2.78Z"/><polygon class="cls-2" points="66.54 24.45 65.52 24.45 62.97 27.59 60.43 24.45 59.39 24.45 59.39 32.12 60.49 32.12 60.49 26.14 60.52 26.14 62.88 29.11 63.06 29.11 65.42 26.14 65.44 26.14 65.44 32.12 66.54 32.12 66.54 24.45 66.54 24.45"/><polygon class="cls-2" points="73.07 24.45 68.72 24.45 68.72 32.12 73.17 32.12 73.17 31.13 69.82 31.13 69.82 28.74 72.96 28.74 72.96 27.75 69.82 27.75 69.82 25.44 73.07 25.44 73.07 24.45 73.07 24.45"/><path class="cls-2" d="M75.2,24.45v7.67h1.1V28.79h.46c.56,0,1,.18,2,1.75l1,1.57h1.32c-.53-.73-.72-1-1-1.52a6.27,6.27,0,0,0-1.71-2.13,1.92,1.92,0,0,0,1.28-1.88c0-1.33-1-2.15-2.52-2.15Zm1.1.94H77c1.07,0,1.5.44,1.51,1.16S78.2,27.8,77,27.8h-.71V25.39Z"/><polygon class="cls-2" points="82.26 32.12 83.37 32.12 83.37 24.45 82.26 24.45 82.26 32.12 82.26 32.12"/><path class="cls-2" d="M91.74,25a6.65,6.65,0,0,0-2.63-.63,4,4,0,0,0-4.21,4A3.92,3.92,0,0,0,89,32.22a5.63,5.63,0,0,0,2.78-.67v-1.2a5,5,0,0,1-2.68.87A2.87,2.87,0,0,1,86,28.29a2.92,2.92,0,0,1,3.06-2.94,5,5,0,0,1,2.64.8V25Z"/><path class="cls-2" d="M96.17,24.4h-.78l-3.3,7.72h1.12l1-2.26h3.26l1,2.26H99.6L96.17,24.4Zm-.4,1.69L97,28.86H94.62l1.15-2.78Z"/></svg>