<svg id="Layer_2" data-name="Layer 2" xmlns="http://www.w3.org/2000/svg" viewBox="0 0 114 59"><defs><style>.cls-1{fill:#fff;}</style></defs><title>Artboard 7 copy 17</title><rect x="1.08" y="1" width="110" height="55" rx="6" ry="6"/><path id="path4-9" d="M26.7,20.47H43.9q0,8.59,0,17.17H26.7V20.47Z"/><path id="path4" class="cls-1" d="M9.54,20.47H26.72q0,8.59,0,17.17H9.54Z"/><path id="path8" d="M17.82,21.43a7.64,7.64,0,0,1,6,2,7.46,7.46,0,0,1,1.45,1.83L21,27.71a2.8,2.8,0,0,0-1.22-1.13,2.76,2.76,0,0,0-3.16.58,2.76,2.76,0,0,0,2.89,4.52A2.79,2.79,0,0,0,21,30.43l4.27,2.44a7.67,7.67,0,1,1-7.46-11.44Z"/><path id="path10" class="cls-1" d="M28,21.7h4.9l4.91,6.14c0-2,0-4.09,0-6.14h4.9q0,7.36,0,14.72H37.76l-4.9-6.13c0,2,0,4.09,0,6.13H28Q28,29.06,28,21.7Z"/><path id="path12" class="cls-1" d="M47.77,21A3.77,3.77,0,0,1,51,20.49a3.91,3.91,0,0,1,2.22,1.73c-.65.37-1.29.75-1.95,1.11a1.61,1.61,0,0,0-1.5-.72,1.5,1.5,0,0,0,.11,3,1.59,1.59,0,0,0,1.4-.74c.64.38,1.3.75,1.95,1.12a4,4,0,0,1-3,1.89h-.48a3.83,3.83,0,0,1-3.19-2.21,3.89,3.89,0,0,1-.3-2.17A3.79,3.79,0,0,1,47.77,21Z"/><path id="path14" class="cls-1" d="M81,20.37a3.62,3.62,0,0,0-2.57,1.14,3.74,3.74,0,0,0-.21,5,3.92,3.92,0,0,0,2.52,1.39h.78A3.87,3.87,0,0,0,84,26.48a3.75,3.75,0,0,0-2.88-6.11Zm.1,2.37a1.39,1.39,0,1,1-.42.09A1.21,1.21,0,0,1,81.07,22.74Z"/><path id="path16" class="cls-1" d="M89.23,20.37a4.83,4.83,0,0,0-.66.05,3.77,3.77,0,0,0-1.37,6.85,4.16,4.16,0,0,0,1.7.62h.76a3.89,3.89,0,0,0,2.64-1.51,3.84,3.84,0,0,0,.64-3.13,3.75,3.75,0,0,0-1.79-2.39A3.6,3.6,0,0,0,89.23,20.37Zm0,2.37a1.37,1.37,0,1,1-1.33,1,1.4,1.4,0,0,1,1-1A1.18,1.18,0,0,1,89.27,22.74Z"/><path id="path18" class="cls-1" d="M81.88,30.12a3.77,3.77,0,0,0-3.18,5.78,3.85,3.85,0,0,0,2.86,1.75h.67a4,4,0,0,0,2.33-1.11,3.87,3.87,0,0,0,1.06-2.21,3.76,3.76,0,0,0-3.3-4.19Zm-.07,2.39a1.37,1.37,0,1,1-.12,2.73,1.38,1.38,0,0,1-.33-2.63A1.23,1.23,0,0,1,81.82,32.52Z"/><path id="path20" class="cls-1" d="M59.22,20.5H55.61c-.74,2.41-1.5,4.82-2.25,7.22h2.56c.11-.4.23-.81.35-1.21.77,0,1.54,0,2.31,0,.16.39.22.81.36,1.2h2.54C60.73,25.32,60,22.91,59.22,20.5Zm-1.81,2c.25.74.46,1.49.65,2.25H56.78C57,24,57.2,23.24,57.41,22.5Z"/><path id="path22" class="cls-1" d="M62.22,20.5v7.22h2.39c0-.7,0-1.41,0-2.11h.78l1.07,2.11h2.66c-.45-.8-.95-1.57-1.39-2.37a2.81,2.81,0,0,1,.35-.27,2.46,2.46,0,0,0,1-2.13,2.55,2.55,0,0,0-2.44-2.44C65.2,20.49,63.71,20.52,62.22,20.5Zm3.16,2.1h.77a.59.59,0,0,1,.6.64.6.6,0,0,1-.59.58H64.61c0-.4,0-.81,0-1.21Z"/><path id="path24" class="cls-1" d="M69.79,22.61c0-.7,0-1.4,0-2.11H77c0,.7,0,1.4,0,2.1H74.74q0,2.56,0,5.11H72.05V22.61Z"/><path id="path26" class="cls-1" d="M93.76,20.51h2.39c.82,1,1.6,2,2.43,3,0-1,0-2,0-3H101c0,2.41,0,4.82,0,7.23H98.6c-.83-1-1.61-2-2.43-3,0,1,0,2,0,3H93.76Q93.76,24.12,93.76,20.51Z"/><path id="path28" class="cls-1" d="M46.24,30.28c.8,0,1.6,0,2.41,0,.8,1,1.59,2,2.42,3,0-1,0-2,0-3h2.37v7.22H51.06c-.82-1-1.61-2-2.43-3,0,1,0,2,0,3H46.25C46.24,35.1,46.25,32.69,46.24,30.28Z"/><path id="path30" class="cls-1" d="M54.51,30.28h6.31c0,.51,0,1,0,1.52,0,.19,0,.39,0,.58-1.3,0-2.6,0-3.9,0,0,.22,0,.43,0,.65H60.2c0,.59,0,1.18,0,1.78H56.89c0,.25,0,.5,0,.75,1.31,0,2.61,0,3.92,0,0,.29,0,.58,0,.88s0,.7,0,1.05H54.51Q54.51,33.9,54.51,30.28Z"/><path id="path32" class="cls-1" d="M61.62,30.29h7.24c0,.7,0,1.4,0,2.1H66.58q0,2.56,0,5.12H63.9q0-2.56,0-5.12c-.76,0-1.52,0-2.28,0Q61.62,31.33,61.62,30.29Z"/><path id="path34" class="cls-1" d="M69.46,30.29h2.43c.19,1.06.38,2.12.61,3.16.41-1,.8-1.94,1.2-2.91.4,1,.78,1.95,1.21,2.9.22-1.05.39-2.11.61-3.16h2.41q-.69,3.61-1.38,7.22h-2q-.41-1-.85-1.95c-.31.64-.57,1.31-.87,2h-2C70.36,35.11,69.94,32.69,69.46,30.29Z"/><path id="path36" class="cls-1" d="M88.54,30.28H86.38q0,3.61,0,7.22h2.41c0-.71,0-1.42,0-2.13h.77c.34.71.71,1.41,1.05,2.12H93.3c-.47-.8-1-1.59-1.42-2.4a2.75,2.75,0,0,0,1.43-2c0-.19,0-.38,0-.57a2.74,2.74,0,0,0-.65-1.4,2.59,2.59,0,0,0-2-.86Zm.25,2.1h1.55a.6.6,0,0,1,.54.81.61.61,0,0,1-.54.4H88.79C88.79,33.2,88.79,32.79,88.79,32.39Z"/><path id="path38" class="cls-1" d="M94.07,37.51q0-3.61,0-7.22c.81,0,1.61,0,2.42,0,0,.78,0,1.55,0,2.33.61-.77,1.19-1.57,1.8-2.34h3.07c-.94,1.14-1.85,2.3-2.79,3.44.89,1.29,1.88,2.51,2.8,3.78H98.29L96.5,34.82c0,.89,0,1.79,0,2.69Z"/></svg>