<svg id="Layer_2" data-name="Layer 2" xmlns="http://www.w3.org/2000/svg" viewBox="0 0 114 59"><defs><style>.cls-1{fill:#1793ef;}.cls-2{fill:#fff;}</style></defs><title>Artboard 7 copy 16</title><rect class="cls-1" x="1.08" y="1" width="110" height="55" rx="6" ry="6"/><path class="cls-2" d="M15.73,28.76c0-6.11,4.68-10.23,10.88-10.23a9.22,9.22,0,0,1,9,5.75l-5.16,2.4a4.19,4.19,0,0,0-3.82-2.88,4.73,4.73,0,0,0-4.8,5,4.73,4.73,0,0,0,4.8,5,4.19,4.19,0,0,0,3.82-2.88l5.16,2.37a9.33,9.33,0,0,1-9,5.78c-6.19,0-10.88-4.15-10.88-10.23"/><path class="cls-2" d="M36.87,38.64V18.86h12c4.09,0,5.87,2.73,5.87,5a4.36,4.36,0,0,1-3.38,4.54,4.67,4.67,0,0,1,3.76,4.84c0,2.76-1.87,5.37-5.84,5.37M48.67,25a1.14,1.14,0,0,0-1.19-1.13H42.86v2.31h4.62A1.17,1.17,0,0,0,48.67,25Zm.39,7.45a1.28,1.28,0,0,0-1.39-1.27h-4.8v2.52h4.8A1.24,1.24,0,0,0,49.05,32.41Z"/><path class="cls-2" d="M55.43,35.85l3.11-4.45A9.21,9.21,0,0,0,64.91,34c1.13,0,2.19-.3,2.19-1.07,0-1.9-11,0-11-7.77,0-3.35,2.79-6.56,8.21-6.56a13,13,0,0,1,8.39,2.76l-3.2,4.24a10,10,0,0,0-5.81-2c-1.19,0-1.51.39-1.51.89,0,1.87,11,.27,11,7.62,0,4.36-3.23,6.88-8.54,6.88-4.21,0-7.08-1.25-9.19-3.14"/><path class="cls-2" d="M96.27,28.47A11.18,11.18,0,1,1,85.1,17.16,11.21,11.21,0,0,1,96.27,28.47m-21.58,0a11.53,11.53,0,0,0,20.82,0,11.57,11.57,0,0,0-20.82,0Zm16.4,0a6,6,0,1,1-6-6A6,6,0,0,1,91.09,28.47Z"/></svg>