<svg id="Layer_2" data-name="Layer 2" xmlns="http://www.w3.org/2000/svg" viewBox="0 0 114 59"><defs><style>.cls-1{fill:#44454e;}.cls-2{fill:#f2f402;}</style></defs><title>Artboard 7 copy 15</title><rect class="cls-1" x="1.08" y="1" width="110" height="55" rx="6" ry="6"/><path class="cls-2" d="M23.05,37.51a9.44,9.44,0,0,1-8.31-5l1.71-.92a7.51,7.51,0,1,0,0-7.21l-1.7-.94a9.45,9.45,0,1,1,8.26,14"/><path class="cls-2" d="M23,32.74a4.67,4.67,0,1,1,4.08-6.95l-1.69.95a2.73,2.73,0,1,0,0,2.62l1.71.92A4.67,4.67,0,0,1,23,32.74"/><path class="cls-2" d="M42.82,18.72a3.92,3.92,0,0,1,2.82,1.08.22.22,0,0,1,0,.33l-.91.94a.2.2,0,0,1-.29,0,2.38,2.38,0,0,0-1.57-.59,2.39,2.39,0,0,0,0,4.77,2.46,2.46,0,0,0,1.56-.56.23.23,0,0,1,.3,0l.91,1a.23.23,0,0,1,0,.32,4,4,0,0,1-2.83,1.13,4.2,4.2,0,1,1,0-8.39"/><path class="cls-2" d="M52.13,18.72a4.2,4.2,0,1,1-4.19,4.21,4.19,4.19,0,0,1,4.19-4.21m0,6.53a2.33,2.33,0,1,0-2.32-2.32,2.34,2.34,0,0,0,2.32,2.32"/><path class="cls-2" d="M60.05,18.91a.22.22,0,0,1,.21-.19h.19a.26.26,0,0,1,.2.12l2.7,5h0l2.71-5a.26.26,0,0,1,.2-.12h.19a.22.22,0,0,1,.21.19L68,26.74a.21.21,0,0,1-.22.26H66.4a.24.24,0,0,1-.22-.19l-.52-3.6h0l-2,3.78a.27.27,0,0,1-.2.13h-.21a.25.25,0,0,1-.2-.13l-2-3.78h0l-.51,3.6a.23.23,0,0,1-.22.19H59a.21.21,0,0,1-.22-.26Z"/><path class="cls-2" d="M71,19.06a.22.22,0,0,1,.22-.22h4.83a.22.22,0,0,1,.22.22v1.27a.22.22,0,0,1-.22.22H72.82V22h2.66a.23.23,0,0,1,.22.22v1.27a.22.22,0,0,1-.22.22H72.82v1.57h3.23a.22.22,0,0,1,.22.22v1.27a.22.22,0,0,1-.22.22H71.22a.22.22,0,0,1-.22-.22Z"/><path class="cls-2" d="M79.35,19.06a.22.22,0,0,1,.21-.22h2.84a4.08,4.08,0,1,1,0,8.16H79.56a.22.22,0,0,1-.21-.22Zm2.94,6.21a2.36,2.36,0,0,0,0-4.72H81.17v4.72Z"/><path class="cls-2" d="M90.78,23.07,88.2,19.17a.22.22,0,0,1,.19-.34H89.9a.23.23,0,0,1,.19.1l1.62,2.39,1.62-2.39a.21.21,0,0,1,.19-.1H95a.22.22,0,0,1,.19.34l-2.61,3.88v3.72a.23.23,0,0,1-.22.22H91a.22.22,0,0,1-.22-.22Z"/><path class="cls-2" d="M90.68,38.38a3.71,3.71,0,0,1-2.68-1A.21.21,0,0,1,88,37l.86-.9a.19.19,0,0,1,.28,0,2.26,2.26,0,0,0,1.49.56,2.26,2.26,0,0,0,0-4.52,2.34,2.34,0,0,0-1.48.53.22.22,0,0,1-.29,0L88,31.79a.22.22,0,0,1,0-.3,3.8,3.8,0,0,1,2.69-1.07,4,4,0,1,1,0,8"/><path class="cls-2" d="M85.23,38.06a.21.21,0,0,1-.21.21H80.44a.21.21,0,0,1-.21-.21V36.86a.21.21,0,0,1,.21-.21H83.5V35.27H81a.22.22,0,0,1-.21-.21V33.86a.21.21,0,0,1,.21-.21H83.5V32.16H80.44a.21.21,0,0,1-.21-.21V30.74a.21.21,0,0,1,.21-.21H85a.21.21,0,0,1,.21.21Z"/><path class="cls-2" d="M77.32,38.18a.21.21,0,0,1-.21.2h-.28l-4.41-4.25h0v3.93a.21.21,0,0,1-.21.21H70.87a.22.22,0,0,1-.21-.21V30.62a.21.21,0,0,1,.21-.2H71a.32.32,0,0,1,.14.06l4.37,4.39h0V30.74a.21.21,0,0,1,.21-.21H77.1a.22.22,0,0,1,.21.21Z"/><path class="cls-2" d="M66.33,36.64h1.58a.21.21,0,0,1,.21.21v1.21a.21.21,0,0,1-.21.21H63a.21.21,0,0,1-.21-.21V36.86a.21.21,0,0,1,.21-.21h1.58V30.74a.22.22,0,0,1,.21-.21h1.33a.22.22,0,0,1,.21.21Z"/><path class="cls-2" d="M60.24,38.06a.21.21,0,0,1-.21.21H56.73A2.36,2.36,0,0,1,56,33.66l-1.52-2.81a.21.21,0,0,1,.19-.32H56.1a.2.2,0,0,1,.18.1l1.47,2.93h.76V30.74a.22.22,0,0,1,.21-.21H60a.21.21,0,0,1,.21.21ZM56.87,35a.89.89,0,0,0-.84.88.85.85,0,0,0,.84.84h1.64V35Z"/><path class="cls-2" d="M52.39,30.82l-3.46,7.44a.22.22,0,0,1-.19.12h-.11a.22.22,0,0,1-.19-.12L45,30.82a.2.2,0,0,1,.19-.29H46.4c.2,0,.29.07.39.28l.4.87h3l.4-.88a.41.41,0,0,1,.4-.27H52.2a.2.2,0,0,1,.19.29m-4.54,2.37L48.69,35h0l.83-1.82Z"/><path class="cls-2" d="M42.64,38.06a.21.21,0,0,1-.21.21H41.11a.22.22,0,0,1-.21-.21V32.16H38.27a.21.21,0,0,1-.21-.21V30.74a.21.21,0,0,1,.21-.21h4.16a.21.21,0,0,1,.21.21Z"/></svg>