<svg id="Layer_2" data-name="Layer 2" xmlns="http://www.w3.org/2000/svg" viewBox="0 0 114 59"><defs><style>.cls-1{fill:#1c9ad6;}.cls-2{fill:#fff;}</style></defs><title>Artboard 491</title><rect class="cls-1" x="1" y="1" width="110" height="55" rx="6" ry="6"/><path class="cls-2" d="M52.17,19.37c-1.3.22-2.12,1-1.91,1.58a7.7,7.7,0,0,1,1.91-1.58"/><path class="cls-2" d="M29.82,27.76c0,.56,2.06,2.26,5.09,3.33,0-1.32,0-3.29,0-4.66-2.46.12-5.12.45-5.12,1.33"/><path class="cls-2" d="M51.2,21.73a3,3,0,0,0,.87.12c.82,0,2.73-.76,2.73-1.69a.54.54,0,0,0-.59-.55c-.77,0-2.35,1.39-3,2.13"/><path class="cls-2" d="M79.14,32.57c-.25,1-1,3.46-1.4,4.78-.32.92-.37,2.28-.61,2.34-.63.14-1.68-.88-1.7-1.92,0-2,1.08-5.32,1.54-6.8a3.91,3.91,0,0,1-.42-1.7c0-2.22,2-4.6,2.68-5.12.33-.27.63.48.37,1S78,27.89,78,28.62a1.24,1.24,0,0,0,.14.5c1.34-1.71,3.64-4.25,4.83-4.32.43,0,1.79.53,1.8,2.82s-2.84,5.14-5.61,4.94m-7.35.28c-1.39,0-1.89-1.46-1.89-2.14a12.68,12.68,0,0,1,.56-2c0-.17-.19-.39-.18-.53.06-.61.94-.68,1-.9a3.79,3.79,0,0,0,.23-1c0-.17-1.27-.42-1.27-1s2.65-.66,4.69-.88c1.19-.13,2.16,1,2.08,1.25a.79.79,0,0,1-.63.52c-.19,0-2.74.12-3.12.28-.19.08-.31.85-.22,1a9.68,9.68,0,0,0,2,.18.64.64,0,0,1-.17,1.26c-.3,0-2.15,0-2.45.08s-.59,1.47-.44,1.61a28,28,0,0,0,3-.39c.42,0,1,.47,1,.88a6.21,6.21,0,0,1-4.19,1.86m-1.72,1a.41.41,0,0,1,.41.4c0,.11,0,2.56.05,3h0a11.49,11.49,0,0,1,3-.15.41.41,0,0,1-.09.82,10.38,10.38,0,0,0-2.74.14c-.52.09-1-.13-1-.76,0-.15,0-2-.05-3a.41.41,0,0,1,.41-.42m-1.22,3.72a6.4,6.4,0,0,1-2.18.28,1.09,1.09,0,0,1-.88-.19,3.8,3.8,0,0,1-.29-1.28.46.46,0,0,1,0-.11v0c-.09-.74-.14-1.51-.14-1.52a.53.53,0,0,1,.16-.39c.2-.2.49-.2,1-.2s1.68-.06,1.83-.08a.41.41,0,0,1,.2.79c-.16.06-1.71.11-2,.11h-.3c0,.21,0,.31.06.64a18.71,18.71,0,0,0,1.89-.15.38.38,0,0,1,.4.38.4.4,0,0,1-.34.4,12.71,12.71,0,0,1-1.85.17c0,.16.07.55.09.65a8.79,8.79,0,0,0,2-.24c.22,0,.41-.05.53.15a.47.47,0,0,1-.13.6m-4.29.3c-.4.18-.8-.18-1.49-.83L63,37c-.18-.17-.45-.46-.74-.77l-.35-.37c0,.53.07,1.22.12,1.87a.41.41,0,0,1-.38.44h0a.41.41,0,0,1-.41-.38s-.05-.71-.1-1.42c-.09-1.47-.1-1.74.27-1.85s.42,0,1.47,1.14c.27.29.55.58.71.74l.06.06.35.33c-.07-.72-.19-1.87-.26-2.54a.41.41,0,1,1,.82-.09c0,.11.29,2.69.31,3.18a.53.53,0,0,1-.3.55m-7.21.5a.41.41,0,0,1-.46-.27,11.81,11.81,0,0,1-.05-1.79c0-1.81,0-1.93.33-2.06s.53.12.84.52.45.59.71.94l.8,1.06c0-.68.11-2.71.13-2.9a.41.41,0,1,1,.82.1c0,.14-.11,1.76-.12,2.46s0,1.29-.34,1.49a.52.52,0,0,1-.52,0c-.2-.1-.43-.39-1.43-1.72l-.39-.53c0,.86,0,2,0,2.24a.41.41,0,0,1-.34.45m-4.56-.13a.41.41,0,0,1-.35-.5l.15-.61a.41.41,0,0,1-.12-.79l.36-.14c.67-2.54.91-2.56,1.19-2.56s.43,0,1.38,1.71a.41.41,0,0,1,.37.31.41.41,0,0,1,0,.31c.22.42.47.91.76,1.49a.41.41,0,0,1-.74.37c-.25-.5-.52-1-.78-1.52-.45.15-1,.35-1.44.51-.1.37-.19.75-.28,1.11a.41.41,0,0,1-.45.31M50.94,29c0-1.27.05-4.75.91-4.76.68,0,1,.89,1.1,5.49.06,2.43-.18,2.51-.87,2.51s-1.21-.34-1.14-3.25m.55,7,.08,1.75a.41.41,0,0,1-.39.43h0a.41.41,0,0,1-.41-.39l-.07-1.56-1.2.35v1a.41.41,0,1,1-.82,0v-.76l-.12,0-.12,0a.41.41,0,0,1-.12-.8l.36-.11V34.44a.41.41,0,1,1,.82,0v1.27l1.16-.34-.06-1.3a.41.41,0,1,1,.82,0l.05,1.12h.07a.4.4,0,0,1,.47.34c0,.27-.13.45-.5.5M44,37.84A1.61,1.61,0,0,1,42.52,37c-.16-.49.08-1,.7-1.53A5,5,0,0,1,46.05,34a.89.89,0,0,1,1,.62.41.41,0,0,1-.79.22.31.31,0,0,0-.16,0,4.24,4.24,0,0,0-2.36,1.25c-.41.34-.47.56-.45.64s.38.3.66.31a19.7,19.7,0,0,0,3.44-.27.41.41,0,1,1,.26.78,19.93,19.93,0,0,1-3.63.31m-6.95-13.5c5.65,0,7.33,1.57,7.34,2.9a2,2,0,0,1-1.24,1.63c-.57,0-1.22,0-1.22-.28s.7-.66.7-1.07S40,26.34,38,26.35h-.86c0,1.61.1,4.16.14,5.37a14.66,14.66,0,0,0,2.81.27c2.73,0,7.69-.86,7.68-4.67,0-4.9-9.63-10.68-18-10.66-1,0-2.92.09-2.92.45s.5.25.5.56-.34.25-.72.25-1,0-1-.58a2,2,0,0,1,1.24-1.53,14.42,14.42,0,0,1,4.3-.58c8.82-.25,19,7,19,12,0,3.75-4.09,6.48-9.21,6.5a14.81,14.81,0,0,1-3.69-.46c-.08.56-.33,1.1-1.05,1.1-1,0-1.22-.77-1.28-1.9-3.53-1.53-5.71-4-5.71-5,0-1.22,2.71-2.46,5.76-2.92.06-1.44.27-4,1-4s1.08,2.36,1.13,3.86m14.12-5.78a1.59,1.59,0,0,1-.92-.88,1.38,1.38,0,0,1,.21-1.34A1.81,1.81,0,0,1,52.85,16a1.48,1.48,0,0,1,.69,1.15,1.42,1.42,0,0,1-.39,1,2.22,2.22,0,0,1,1.45.68h0a1.53,1.53,0,0,1,.19-.65A1.59,1.59,0,0,1,56,17.41a1.9,1.9,0,0,1,1.57.62A1.71,1.71,0,0,1,58,19.11a1.55,1.55,0,0,1-.51,1.26,1.63,1.63,0,0,1-1.36.36,1.43,1.43,0,0,1-.58-.18A4.8,4.8,0,0,1,51.91,23c-2.14,0-2.67-1.27-2.68-2a3.28,3.28,0,0,1,2-2.42m7.52,5.73c1.17,0,3.23,0,3.24.79,0,1.35-6.64.62-6.65,1.61,0,.3,1.44.37,2.78.48,1.79.15,3.84.4,3.85,2.57,0,.89-.76,2.62-3.81,2.63s-4.19-1.58-4.19-2.25c0-1.3,1.24-1.65,2.1-1.66s3.48.32,3.48,1c0,.36-.66.71-1.47.72s-2-.71-2.53-.71a.74.74,0,0,0-.81.6c0,.22,0,.66,1.54.66.73,0,4.29-.4,4.28-1.38,0-.44-1.63-.87-3-1-1.65-.17-4.13.24-4.13-1.43,0-2.47,4.43-2.57,5.3-2.58m5.14.64c1,.08,3.47,4.54,3.75,4.46s.2-.47.2-.7c0-1.13-1.17-4.08-1.18-4.93,0-.28,0-.55.3-.55,1,0,2.72,3.17,2.74,5.77,0,1.13-.7,2.87-1.89,2.88S64.7,27.8,64.34,27.8s.14,4.46-1.07,4.46c-.82,0-1-.73-1-1.83s.55-5.56,1.6-5.49M85.74,26.4a4.85,4.85,0,0,0-3.47-3.48,5,5,0,0,0-3.19.24,6.21,6.21,0,0,0-1.53.93,3.74,3.74,0,0,0-2.41-.95,24.52,24.52,0,0,0-5.71,1c-.54-.94-1.38-2-2.39-2.08a1.38,1.38,0,0,0-1.23.54,2.76,2.76,0,0,0-.24,2.09c-1.45-1.45-4.71-1.55-6.79-1.56A15.25,15.25,0,0,0,53.5,24a9.29,9.29,0,0,0,2.68-2.26,2.63,2.63,0,0,0,2.43-1.08,2.71,2.71,0,0,0,.14-2.75,3,3,0,0,0-1.81-1.47,2.69,2.69,0,0,0-2.42.48,2.54,2.54,0,0,0-1.6-2,2.82,2.82,0,0,0-2.75.37,2.52,2.52,0,0,0-.88,1.29,2.37,2.37,0,0,0,.22,1.78h0a3.66,3.66,0,0,0-1.39,2.79,24.78,24.78,0,0,0-6-4.31,24.35,24.35,0,0,0-9.95-2.76,22,22,0,0,0-5,.44c-2.55.76-2.8,2.62-2.53,3.42s1.36,1.26,2.72,1a1.44,1.44,0,0,0,1.14-1.16,20.54,20.54,0,0,1,6.42.63,20.1,20.1,0,0,0-1,5.08,16,16,0,0,0-3.44,1.11,4.15,4.15,0,0,0-2.25,2.08,3.12,3.12,0,0,0,.91,2.93,15,15,0,0,0,4.74,3.57,2.51,2.51,0,0,0,1.58,2.17A2.22,2.22,0,0,0,38,34.58a18.13,18.13,0,0,0,3.08.28v1.21a2.74,2.74,0,0,0,2.73,2.74H74.52a3.47,3.47,0,0,0,2.07,1.94c1.62.32,1.81-1.18,1.89-1.66a11,11,0,0,1,.32-1.47l1.18-4a7.4,7.4,0,0,0,3-1.26,7.58,7.58,0,0,0,2-2.22,5.09,5.09,0,0,0,.65-3.78"/><path class="cls-2" d="M53.78,35.86l.78-.27c-.17-.31-.33-.58-.46-.78-.1.27-.21.64-.32,1.06"/><path class="cls-2" d="M83.09,26.43c-.54,0-2,2.3-3,4,1.47,0,3.53-1.39,3.53-3.09,0-.57-.15-.94-.52-.95"/></svg>