<svg id="Layer_2" data-name="Layer 2" xmlns="http://www.w3.org/2000/svg" viewBox="0 0 114 59"><defs><style>.cls-1{fill:#2e3191;}.cls-2{fill:#fff;fill-rule:evenodd;}</style></defs><title>Artboard 7 copy 8</title><rect class="cls-1" x="0.95" y="1" width="110" height="55" rx="6" ry="6"/><path class="cls-2" d="M41.67,28.54a11.77,11.77,0,1,1,11.8,11.94,11.86,11.86,0,0,1-11.8-11.94ZM26.58,40.85V16.15H41.4l.45,6.78H33.56v3.24h6.78v6.68H33.56v8ZM84,40.78,76.56,28l6.78-11.77H75.84l-3,5.24-3.07-5.24H62.12L69,28.09,61.67,40.78h7.49l3.54-6.13,3.59,6.13ZM55.49,33.43V23.64a2.08,2.08,0,0,0-2-2.15,2.11,2.11,0,0,0-2,2.15v9.79a2,2,0,0,0,2,2,1.93,1.93,0,0,0,2-2Z"/></svg>