<svg id="Layer_2" data-name="Layer 2" xmlns="http://www.w3.org/2000/svg" viewBox="0 0 114 59"><defs><style>.cls-1{fill:#fff;}</style></defs><title>Artboard 5 copy</title><rect x="1" y="1" width="110" height="55" rx="6" ry="6"/><g id="path3"><path class="cls-1" d="M54.63,16.71c1.71,0,6.58.93,6.58,5.72,0,3.86-1.84,5-3.29,5.26-1.05.2,3,0,3,4.83,0,6.84-5.92,6.58-5.92,6.58H45.15V16.71Zm-3.95,5.46v3.38H54a1.62,1.62,0,0,0,1.32-1.78c0-1.62-1.32-1.61-1.32-1.61Zm0,8.25v3.42H54s1.32-.13,1.32-1.84A1.39,1.39,0,0,0,54,30.42ZM27.52,16.71V39.11H33.7V30.82h3.95v8.29h6.18V16.71H37.65v8.45H33.7V16.71Z"/></g><path class="cls-1" d="M71.6,39.37A11.45,11.45,0,1,1,83,27.92,11.46,11.46,0,0,1,71.6,39.37Zm0-17.1a5.66,5.66,0,1,0,5.66,5.66A5.66,5.66,0,0,0,71.6,22.27Z"/><circle class="cls-1" cx="71.6" cy="27.92" r="4.61"/></svg>