<svg id="Layer_2" data-name="Layer 2" xmlns="http://www.w3.org/2000/svg" viewBox="0 0 114 59"><defs><style>.cls-1{fill:#e6e6e6;}.cls-2{fill:gold;}.cls-2,.cls-3{fill-rule:evenodd;}.cls-3{fill:#231f20;}</style></defs><title>Artboard 7 copy 11</title><rect class="cls-1" x="0.95" y="1" width="110" height="55" rx="6" ry="6"/><path class="cls-2" d="M14.63,16.46H31.43V40.54H14.63V16.46ZM17,38.12H29V18.88H17V38.12Z"/><path class="cls-3" d="M42.6,27.26h-1c-1.37-1.93-2.72-3.85-4.07-6h0v6H36.33V18.88h1c1.37,1.92,2.72,3.82,4.06,6h0v-6H42.6v8.38Z"/><path class="cls-3" d="M45.33,23.95c.33-1.1.67-2.12,1-3.41h0c.33,1.29.63,2.31.95,3.41Zm.55-5.07L43,27.26h1.25L45,25h2.53l.66,2.29h1.61l-2.67-8.38Z"/><polygon class="cls-3" points="51.1 27.26 51.1 20 48.9 20 48.9 18.88 54.74 18.88 54.74 20 52.54 20 52.54 27.26 51.1 27.26 51.1 27.26"/><polygon class="cls-3" points="55.21 18.88 56.64 18.88 56.64 27.26 55.21 27.26 55.21 18.88 55.21 18.88"/><path class="cls-3" d="M61.07,26.21c-1.5,0-2-1.65-2-3.26s.6-3,2-3,2,1.47,2,3-.53,3.26-2,3.26Zm0,1.2c2.19,0,3.56-2,3.56-4.46,0-2.35-1.51-4.21-3.56-4.21S57.51,20.6,57.51,23c0,2.5,1.37,4.46,3.56,4.46Z"/><path class="cls-3" d="M71.77,27.26h-1c-1.37-1.93-2.72-3.85-4.07-6h0v6H65.5V18.88h1c1.36,1.92,2.72,3.82,4.06,6h0v-6h1.15v8.38Z"/><path class="cls-3" d="M74.5,23.95c.34-1.1.67-2.12,1-3.41h0c.34,1.29.63,2.31.94,3.41Zm.55-5.07-2.9,8.38H73.4L74.13,25h2.53l.66,2.29h1.6l-2.67-8.38Z"/><polygon class="cls-3" points="79.34 18.88 80.77 18.88 80.77 26.14 83.61 26.14 83.61 27.26 79.34 27.26 79.34 18.88 79.34 18.88"/><path class="cls-3" d="M41.72,34.28v3.46a6.6,6.6,0,0,1-2.38.51c-2.47,0-4-1.92-4-4.38a4.07,4.07,0,0,1,4.07-4.29,3.59,3.59,0,0,1,2,.65l-.47,1a3.14,3.14,0,0,0-1.53-.44c-1.53,0-2.57,1.21-2.57,3.11s1.2,3.16,2.43,3.16a2.1,2.1,0,0,0,1-.2V34.28Z"/><polygon class="cls-3" points="46.86 30.85 44.46 30.85 44.46 33.15 46.8 33.15 46.8 34.28 44.46 34.28 44.46 36.98 47.28 36.98 47.28 38.11 43.02 38.11 43.02 29.72 46.86 29.72 46.86 30.85 46.86 30.85"/><path class="cls-3" d="M51.29,37.05c-1.5,0-2-1.65-2-3.26s.6-3,2-3,2,1.47,2,3-.53,3.26-2,3.26Zm0,1.2c2.19,0,3.55-2,3.55-4.46,0-2.35-1.51-4.22-3.55-4.22s-3.56,1.87-3.56,4.22c0,2.5,1.36,4.46,3.56,4.46Z"/><path class="cls-3" d="M61.74,34.28v3.46a6.6,6.6,0,0,1-2.38.51c-2.47,0-4-1.92-4-4.38a4.07,4.07,0,0,1,4.07-4.29,3.58,3.58,0,0,1,2,.65l-.47,1a3.12,3.12,0,0,0-1.53-.44c-1.54,0-2.58,1.21-2.58,3.11s1.2,3.16,2.43,3.16a2.09,2.09,0,0,0,1-.2V34.28Z"/><path class="cls-3" d="M64.5,30.85h.63a1.22,1.22,0,0,1,1.33,1.35,1.48,1.48,0,0,1-1.36,1.66l-.6,0V30.85Zm3.64,7.26-1.69-3.47a2.82,2.82,0,0,0,1.45-2.49c0-1.63-1-2.42-2.6-2.42H63.06v8.38H64.5V34.95h.65l1.35,3.16Z"/><path class="cls-3" d="M70.51,34.79c.33-1.1.67-2.12,1-3.41h0c.34,1.29.63,2.31.95,3.41Zm.55-5.07-2.9,8.38H69.4l.73-2.29h2.53l.66,2.29h1.61l-2.67-8.38Z"/><path class="cls-3" d="M77.62,29.72H75.38v8.38h1.44V34.95h.65a2.74,2.74,0,0,0,2.76-2.8c0-1.63-1-2.42-2.6-2.42Zm-.2,4.14-.6,0V30.85h.65a1.21,1.21,0,0,1,1.32,1.35,1.48,1.48,0,0,1-1.36,1.66Z"/><polygon class="cls-3" points="86.88 38.11 85.44 38.11 85.44 34.07 82.45 34.07 82.45 38.11 81.03 38.11 81.03 29.72 82.45 29.72 82.45 32.95 85.44 32.95 85.44 29.75 86.88 29.75 86.88 38.11 86.88 38.11"/><polygon class="cls-3" points="88.25 29.72 89.68 29.72 89.68 38.11 88.25 38.11 88.25 29.72 88.25 29.72"/><path class="cls-3" d="M96.14,31.25a3,3,0,0,0-1.47-.47c-1.46,0-2.53,1.21-2.53,3.11s1.17,3.16,2.56,3.16a2.71,2.71,0,0,0,1.44-.42l.4,1a3.66,3.66,0,0,1-1.89.57c-2.47,0-4-1.92-4-4.38a4.05,4.05,0,0,1,4-4.29,3.55,3.55,0,0,1,1.93.65l-.46,1Z"/></svg>