<svg id="Layer_2" data-name="Layer 2" xmlns="http://www.w3.org/2000/svg" viewBox="0 0 114 59"><defs><style>.cls-1{fill:#231f20;}.cls-2{fill:#fff;}.cls-2,.cls-3,.cls-4,.cls-5,.cls-6,.cls-7,.cls-8{fill-rule:evenodd;}.cls-3{fill:#f1c218;}.cls-4{fill:#e87224;}.cls-5{fill:#bf1f46;}.cls-6{fill:#06ab4b;}.cls-7{fill:#70569d;}.cls-8{fill:#0389ca;}</style></defs><title>Artboard 7 copy 20</title><rect class="cls-1" x="0.95" y="1" width="110" height="55" rx="6" ry="6"/><polygon class="cls-2" points="72.99 17.86 72.97 17.77 72.96 17.68 72.94 17.58 72.94 17.5 72.92 17.4 72.89 17.3 72.88 17.22 72.86 17.12 72.83 17.04 72.81 16.94 72.78 16.85 72.76 16.76 72.73 16.67 72.7 16.59 72.67 16.49 72.63 16.41 72.58 16.31 72.55 16.23 72.52 16.15 72.47 16.05 72.44 15.97 72.39 15.88 72.34 15.8 72.29 15.71 72.24 15.62 72.19 15.54 72.14 15.46 72.09 15.38 72.03 15.28 71.98 15.22 71.96 15.2 71.95 15.17 71.93 15.14 71.9 15.1 71.88 15.09 71.85 15.05 71.83 15.02 71.8 14.99 71.78 14.96 71.75 14.91 71.72 14.88 71.69 14.84 71.67 14.81 71.64 14.78 71.61 14.74 71.57 14.7 71.52 14.65 71.48 14.6 71.43 14.55 71.38 14.5 71.34 14.45 71.3 14.4 71.25 14.35 71.2 14.3 71.15 14.27 71.1 14.22 71.05 14.19 71 14.14 70.95 14.11 70.91 14.06 70.86 14.03 70.79 13.96 70.73 13.91 70.66 13.88 70.6 13.83 70.53 13.78 70.47 13.73 70.4 13.7 70.33 13.65 70.27 13.62 70.19 13.57 70.12 13.54 70.06 13.51 69.98 13.46 69.91 13.43 69.85 13.39 69.77 13.36 69.7 13.33 69.62 13.29 69.55 13.26 69.47 13.23 69.39 13.21 69.33 13.18 69.24 13.15 69.16 13.13 69.08 13.1 69.02 13.08 68.93 13.07 68.85 13.03 68.77 13.02 68.69 13 68.61 12.98 68.53 12.97 68.38 12.94 68.25 12.92 68.1 12.9 67.97 12.89 67.83 12.87 67.7 12.86 67.57 12.86 67.42 12.86 67.29 12.86 67.16 12.86 67.01 12.86 65.64 12.95 65.32 11.73 65.27 11.6 65.24 11.49 65.22 11.42 65.19 11.34 65.17 11.28 65.16 11.23 65.14 11.18 65.12 11.14 65.11 11.1 65.06 11.01 65.01 10.88 64.96 10.77 64.89 10.64 64.83 10.53 64.76 10.41 64.7 10.3 64.63 10.18 64.55 10.07 64.49 9.96 64.41 9.84 64.32 9.74 64.24 9.63 64.16 9.53 64.06 9.43 63.98 9.34 63.88 9.24 63.79 9.14 63.69 9.06 63.59 8.98 63.48 8.88 63.38 8.8 63.27 8.72 63.17 8.65 63.05 8.57 62.94 8.49 62.83 8.42 62.71 8.36 62.58 8.29 62.47 8.23 62.34 8.18 62.22 8.12 62.14 8.08 62.09 8.07 62.04 8.03 61.98 8.02 61.93 8 61.86 7.98 61.81 7.95 61.75 7.93 61.7 7.92 61.65 7.9 61.59 7.89 61.54 7.87 61.47 7.85 61.42 7.84 61.36 7.82 61.31 7.8 61.23 7.77 61.15 7.76 61.07 7.74 60.97 7.72 60.89 7.71 60.79 7.69 60.71 7.67 60.63 7.66 60.53 7.64 60.45 7.64 60.35 7.63 60.27 7.63 60.19 7.61 60.09 7.61 60.01 7.61 59.91 7.61 59.83 7.61 59.73 7.61 59.65 7.61 59.55 7.63 59.47 7.63 59.39 7.64 59.29 7.64 59.21 7.66 59.11 7.67 59.03 7.69 58.95 7.71 58.85 7.72 58.77 7.74 58.69 7.76 58.59 7.77 58.52 7.8 58.51 7.8 58.48 7.8 58.44 7.82 58.41 7.82 58.38 7.84 58.35 7.85 58.33 7.85 58.3 7.87 58.26 7.87 58.23 7.89 58.2 7.89 58.17 7.9 58.13 7.92 58.1 7.92 58.04 7.95 57.87 8.02 57.74 8.07 57.61 8.12 57.5 8.18 57.37 8.24 57.25 8.31 57.12 8.38 57.01 8.44 56.9 8.52 56.78 8.59 56.67 8.67 56.55 8.75 56.44 8.83 55.51 9.56 54.58 8.83 54.47 8.75 54.37 8.67 54.26 8.59 54.14 8.52 54.03 8.44 53.91 8.38 53.78 8.31 53.67 8.24 53.54 8.18 53.43 8.12 53.3 8.07 53.16 8.02 52.99 7.93 52.91 7.92 52.89 7.9 52.87 7.9 52.86 7.9 52.82 7.89 52.81 7.89 52.77 7.87 52.74 7.87 52.73 7.85 52.69 7.85 52.66 7.84 52.63 7.84 52.59 7.82 52.56 7.8 52.53 7.8 52.51 7.8 52.43 7.77 52.35 7.76 52.27 7.74 52.19 7.72 52.09 7.71 52.01 7.69 51.91 7.67 51.83 7.66 51.75 7.64 51.65 7.64 51.57 7.63 51.47 7.63 51.39 7.61 51.31 7.61 51.21 7.61 51.13 7.61 51.03 7.61 50.95 7.61 50.85 7.61 50.77 7.63 50.67 7.63 50.59 7.64 50.51 7.64 50.41 7.66 50.33 7.67 50.23 7.69 50.15 7.71 50.07 7.72 49.97 7.74 49.89 7.76 49.81 7.77 49.71 7.8 49.66 7.82 49.61 7.84 49.55 7.85 49.5 7.87 49.45 7.89 49.39 7.9 49.34 7.92 49.29 7.93 49.22 7.95 49.17 7.98 49.11 8 49.06 8.02 48.99 8.05 48.95 8.07 48.88 8.1 48.82 8.12 48.69 8.18 48.57 8.24 48.44 8.31 48.33 8.38 48.21 8.44 48.1 8.51 47.98 8.59 47.87 8.65 47.76 8.73 47.66 8.81 47.55 8.9 47.45 8.98 47.35 9.08 47.25 9.16 47.16 9.26 47.06 9.35 46.96 9.45 46.88 9.55 46.8 9.65 46.72 9.74 46.63 9.86 46.55 9.96 46.47 10.07 46.41 10.18 46.34 10.3 46.26 10.41 46.21 10.53 46.14 10.64 46.08 10.77 46.03 10.88 45.98 11.01 45.93 11.1 45.92 11.14 45.9 11.18 45.88 11.23 45.87 11.28 45.85 11.34 45.82 11.42 45.8 11.49 45.77 11.6 45.72 11.73 45.4 12.95 44.03 12.87 43.9 12.86 43.75 12.86 43.62 12.86 43.49 12.86 43.34 12.87 43.21 12.87 43.08 12.89 42.94 12.9 42.8 12.92 42.67 12.94 42.51 12.97 42.41 12.98 42.33 13 42.25 13.02 42.17 13.05 42.1 13.07 42.02 13.08 41.94 13.12 41.86 13.13 41.8 13.16 41.71 13.18 41.65 13.21 41.57 13.25 41.49 13.26 41.42 13.29 41.34 13.33 41.27 13.36 41.21 13.39 41.13 13.43 41.06 13.47 40.98 13.51 40.91 13.54 40.85 13.59 40.78 13.62 40.72 13.67 40.64 13.7 40.57 13.75 40.51 13.78 40.44 13.83 40.38 13.88 40.31 13.93 40.25 13.98 40.2 14.03 40.13 14.06 40.1 14.11 40.05 14.14 40 14.19 39.95 14.22 39.91 14.27 39.86 14.32 39.81 14.37 39.76 14.4 39.71 14.45 39.66 14.5 39.61 14.56 39.56 14.61 39.51 14.66 39.47 14.73 39.45 14.76 39.43 14.76 39.4 14.81 39.37 14.84 39.34 14.88 39.3 14.91 39.29 14.96 39.25 14.99 39.22 15.02 39.2 15.05 39.17 15.09 39.16 15.1 39.14 15.14 39.11 15.17 39.09 15.2 39.08 15.23 39.04 15.27 39.01 15.31 38.98 15.36 38.94 15.41 38.93 15.45 38.9 15.49 38.86 15.54 38.83 15.57 38.81 15.62 38.78 15.67 38.77 15.72 38.73 15.76 38.7 15.8 38.68 15.85 38.65 15.9 38.63 15.95 38.6 16 38.59 16.03 38.57 16.08 38.54 16.13 38.52 16.18 38.49 16.23 38.47 16.28 38.46 16.32 38.44 16.37 38.41 16.42 38.39 16.47 38.37 16.52 38.36 16.57 38.34 16.62 38.33 16.67 38.31 16.72 38.29 16.78 38.26 16.85 38.24 16.93 38.21 17.01 38.2 17.09 38.18 17.17 38.16 17.25 38.15 17.34 38.13 17.42 38.11 17.5 38.1 17.58 38.08 17.66 38.08 17.74 38.06 17.82 38.06 17.91 38.05 17.99 38.05 18.07 38.05 18.15 38.05 18.23 38.05 18.31 38.05 18.41 38.05 18.49 38.05 18.57 38.05 18.65 38.06 18.74 38.06 18.82 38.06 18.9 38.08 18.98 38.1 19.06 38.1 19.14 38.11 19.22 38.13 19.31 38.15 19.4 38.16 19.48 38.18 19.55 38.2 19.61 38.21 19.68 38.23 19.75 38.24 19.81 38.26 19.89 38.28 19.96 38.29 20.02 38.31 20.09 38.33 20.15 38.73 21.41 37.59 22.03 37.51 22.07 37.43 22.12 37.35 22.17 37.27 22.22 37.19 22.27 37.14 22.32 37.07 22.35 37.01 22.4 36.96 22.45 36.89 22.48 36.83 22.53 36.76 22.58 36.71 22.63 36.65 22.68 36.58 22.73 36.53 22.78 36.47 22.84 36.42 22.89 36.35 22.94 36.3 22.99 36.22 23.07 36.13 23.17 36.05 23.26 35.95 23.36 35.87 23.48 35.78 23.57 35.7 23.69 35.62 23.8 35.56 23.9 35.47 24.01 35.41 24.13 35.34 24.26 35.28 24.37 35.23 24.49 35.16 24.62 35.12 24.73 35.07 24.86 35.02 24.98 34.97 25.11 34.94 25.23 34.89 25.37 34.86 25.5 34.82 25.63 34.81 25.76 34.77 25.89 34.76 26.02 34.73 26.15 34.71 26.28 34.71 26.41 34.69 26.55 34.69 26.68 34.68 26.82 34.68 26.96 34.68 27.09 34.69 27.22 34.69 27.35 34.71 27.5 34.71 27.63 34.73 27.76 34.76 27.89 34.77 28.02 34.81 28.15 34.82 28.28 34.86 28.41 34.89 28.54 34.94 28.67 34.97 28.8 35.02 28.92 35.07 29.05 35.12 29.16 35.16 29.29 35.23 29.41 35.28 29.54 35.34 29.65 35.41 29.76 35.47 29.88 35.56 29.99 35.62 30.11 35.7 30.22 35.78 30.32 35.87 30.43 35.95 30.53 36.05 30.63 36.13 30.74 36.24 30.86 36.3 30.92 36.35 30.95 36.39 31 36.44 31.04 36.48 31.07 36.52 31.12 36.57 31.15 36.62 31.18 36.65 31.21 36.7 31.25 36.74 31.3 36.78 31.33 36.83 31.36 36.88 31.39 36.92 31.43 36.96 31.46 37.01 31.49 37.05 31.52 37.1 31.56 37.15 31.59 37.19 31.61 37.23 31.64 37.28 31.67 37.33 31.7 37.38 31.73 37.43 31.75 37.48 31.78 37.53 31.82 37.58 31.83 37.63 31.86 37.67 31.88 37.71 31.91 37.76 31.93 37.84 31.98 37.9 32.01 37.97 32.05 38.05 32.08 38.11 32.11 38.2 32.14 38.26 32.17 38.34 32.19 38.42 32.22 38.49 32.26 38.57 32.27 38.65 32.29 38.72 32.32 38.8 32.34 38.88 32.35 38.96 32.39 39.03 32.4 39.11 32.42 39.19 32.44 39.27 32.44 39.35 32.45 39.42 32.47 39.5 32.48 39.58 32.48 39.66 32.5 39.74 32.5 39.82 32.5 39.91 32.52 39.99 32.52 40.05 32.52 40.13 32.52 70.91 32.52 71 32.52 71.12 32.52 71.22 32.5 71.33 32.5 71.43 32.48 71.52 32.48 71.64 32.47 71.74 32.45 71.83 32.44 71.95 32.4 72.05 32.39 72.14 32.37 72.24 32.34 72.34 32.3 72.45 32.27 72.55 32.26 72.65 32.21 72.75 32.17 72.84 32.14 72.94 32.11 73.02 32.06 73.12 32.01 73.22 31.98 73.32 31.93 73.4 31.88 73.5 31.83 73.59 31.77 73.67 31.72 73.77 31.67 73.85 31.61 73.95 31.56 74.05 31.47 74.11 31.43 74.16 31.39 74.2 31.36 74.25 31.33 74.29 31.3 74.33 31.26 74.38 31.23 74.42 31.18 74.46 31.15 74.5 31.12 74.55 31.08 74.59 31.04 74.64 31 74.69 30.95 74.72 30.92 74.77 30.87 74.93 30.71 74.99 30.64 75.04 30.58 75.11 30.51 75.16 30.45 75.21 30.38 75.25 30.32 75.32 30.25 75.37 30.19 75.4 30.12 75.45 30.06 75.5 29.99 75.55 29.91 75.6 29.84 75.63 29.78 75.68 29.7 75.71 29.63 75.74 29.57 75.79 29.49 75.83 29.42 75.86 29.34 75.89 29.27 75.92 29.19 75.95 29.13 75.99 29.05 76.02 28.98 76.05 28.9 76.07 28.84 76.1 28.75 76.12 28.67 76.15 28.61 76.17 28.53 76.2 28.43 76.22 28.36 76.23 28.33 76.23 28.28 76.25 28.23 76.25 28.18 76.27 28.14 76.28 28.09 76.28 28.05 76.3 28 76.3 27.96 76.31 27.91 76.31 27.84 76.33 27.79 76.33 27.74 76.35 27.7 76.35 27.63 76.35 27.57 76.36 27.53 76.36 27.48 76.36 27.45 76.36 27.4 76.36 27.37 76.36 27.32 76.38 27.29 76.38 27.24 76.38 27.21 76.38 27.16 76.38 27.13 76.38 27.08 76.38 27.04 76.38 27 76.38 26.95 76.38 26.85 76.38 26.73 76.36 26.62 76.36 26.52 76.36 26.41 76.35 26.29 76.33 26.18 76.31 26.08 76.3 25.97 76.28 25.85 76.27 25.76 76.23 25.64 76.22 25.55 76.18 25.43 76.15 25.33 76.12 25.22 76.09 25.12 76.05 25.02 76.02 24.91 75.97 24.81 75.94 24.71 75.89 24.62 75.84 24.52 75.79 24.42 75.74 24.32 75.69 24.23 75.63 24.13 75.58 24.03 75.52 23.95 75.45 23.85 75.39 23.77 75.34 23.69 75.32 23.66 75.27 23.61 75.24 23.56 75.21 23.52 75.17 23.48 75.14 23.43 75.11 23.39 75.06 23.35 75.03 23.31 74.99 23.26 74.96 23.23 74.93 23.2 74.9 23.15 74.86 23.12 74.81 23.09 74.8 23.05 74.75 23 74.69 22.95 74.62 22.89 74.57 22.84 74.5 22.79 74.44 22.73 74.39 22.68 74.33 22.63 74.26 22.58 74.21 22.53 74.15 22.5 74.08 22.45 74.03 22.4 73.97 22.37 73.92 22.32 73.85 22.29 73.79 22.24 73.71 22.19 73.64 22.14 73.56 22.09 73.48 22.06 73.4 22.01 72.31 21.41 72.71 20.15 72.73 20.1 72.75 20.05 72.75 20.01 72.76 19.97 72.78 19.93 72.78 19.88 72.8 19.84 72.81 19.8 72.83 19.75 72.83 19.7 72.84 19.65 72.86 19.6 72.86 19.55 72.88 19.5 72.89 19.45 72.89 19.4 72.91 19.36 72.92 19.27 72.92 19.19 72.94 19.13 72.96 19.05 72.96 18.96 72.97 18.88 72.97 18.8 72.99 18.74 72.99 18.65 73.01 18.57 73.01 18.49 73.01 18.41 73.01 18.33 73.01 18.25 73.01 18.15 73.01 18.05 72.99 17.95 72.99 17.86 72.99 17.86"/><path class="cls-3" d="M41.68,23.12a4.41,4.41,0,0,0-1.55-.24,3.66,3.66,0,0,0-2.12.67,4.48,4.48,0,0,0-.7.57,4.14,4.14,0,0,0,0,5.67,3.76,3.76,0,0,0,1.09.78,3.58,3.58,0,0,0,1.73.44H53.59L43.16,24c-.26-.16-.49-.33-.7-.44a4.85,4.85,0,0,0-.78-.42Z"/><path class="cls-4" d="M46.13,15.2a2.07,2.07,0,0,1-.31-.21,4,4,0,0,0-3-.54,3.87,3.87,0,0,0-1.66.75,4.07,4.07,0,0,0-.54.52c-.11.13-.21.28-.31.41a3.92,3.92,0,0,0-.55,1.11,3.68,3.68,0,0,0-.1,1.89,4.65,4.65,0,0,0,.57,1.52,3.51,3.51,0,0,0,1.06,1.08l11.75,8L47.71,17.61c-.07-.13-.11-.26-.16-.37A7.32,7.32,0,0,0,47,16l-.26-.33a4.43,4.43,0,0,0-.57-.52Z"/><path class="cls-5" d="M52.48,9.37a2.32,2.32,0,0,0-.36-.11,3.8,3.8,0,0,0-2,0,5.74,5.74,0,0,0-.68.24,3.79,3.79,0,0,0-2.1,2.18l-.07.16a4,4,0,0,0,.08,2.93L53.1,28,55,14.65A9.61,9.61,0,0,0,55.15,13a4.07,4.07,0,0,0-.23-1.11c0-.13-.1-.26-.15-.41a3.87,3.87,0,0,0-2.3-2.07Z"/><path class="cls-6" d="M68.58,23.54c-.21.11-.44.28-.7.44L57.45,31H70.91a3.85,3.85,0,0,0,2.26-.75,6.66,6.66,0,0,0,.55-.47l.11-.11a3.74,3.74,0,0,0,.9-1.63,3.2,3.2,0,0,0,.11-.57c0-.16,0-.34,0-.51a3.83,3.83,0,0,0-.75-2.38,3.54,3.54,0,0,0-.39-.47,4.57,4.57,0,0,0-.72-.57,3.38,3.38,0,0,0-.9-.47,3.81,3.81,0,0,0-1.21-.2,4.25,4.25,0,0,0-1.53.24,4.9,4.9,0,0,0-.8.42Z"/><path class="cls-7" d="M63.77,11.84l-.07-.16A3.84,3.84,0,0,0,61.6,9.5a5.76,5.76,0,0,0-.68-.24,3.8,3.8,0,0,0-2,0,2.33,2.33,0,0,0-.36.11,3.92,3.92,0,0,0-2.3,2.07c0,.15-.11.28-.16.41a4,4,0,0,0-.2,1.74v.08H57c.33,0,.54.08.59.16s-.08.21-.44.36l-.28.18-.34.28a1,1,0,0,0-.28.55,1.8,1.8,0,0,0,0,.52,1.32,1.32,0,0,0,0,.24l1.71,12,5.77-13.21a4,4,0,0,0,.07-2.93Z"/><path class="cls-8" d="M71.49,18.21a4,4,0,0,0-.72-2.09c-.1-.13-.2-.28-.31-.41a4.07,4.07,0,0,0-.54-.52,3.84,3.84,0,0,0-1.68-.75,4,4,0,0,0-3,.54,3.48,3.48,0,0,1-.31.21,5.78,5.78,0,0,0-.55.52,2.07,2.07,0,0,0-.26.33,10,10,0,0,0-.77,1.56L58,29.75l11.75-8a3.51,3.51,0,0,0,1.06-1.08.26.26,0,0,0,.07-.11,4.11,4.11,0,0,0,.36-.81c0-.18.11-.39.15-.59a3.52,3.52,0,0,0,.08-.91Z"/><path class="cls-2" d="M54.71,36.75v3.1h1.52a1.3,1.3,0,0,0,1.06-.5,1.79,1.79,0,0,0,.41-1.19,1.36,1.36,0,0,0-.49-1,1.39,1.39,0,0,0-1-.42Zm0,5.39v3.37h1.74a2.81,2.81,0,0,0,1.47-.37A1.27,1.27,0,0,0,58.57,44c0-1.12-.72-1.74-2.12-1.82Zm17.81-7.87v3.1a5,5,0,0,0-2.3-.72,9.55,9.55,0,0,0-1,.1,4.76,4.76,0,0,0-2.88,1.48,4.2,4.2,0,0,0-1.14,2.95A4.05,4.05,0,0,0,66.3,44,4.74,4.74,0,0,0,69,45.52a5,5,0,0,0,1.11.1,5.16,5.16,0,0,0,2.43-.73v3.39a7.47,7.47,0,0,1-2.62.49,7,7,0,0,1-.91,0A8.85,8.85,0,0,1,65.2,47.5a7.43,7.43,0,0,1-2.7-2.75,7.54,7.54,0,0,1-1-3.86,7.09,7.09,0,0,1,1.11-3.6,7.38,7.38,0,0,1,2.74-2.56,8.45,8.45,0,0,1,3.75-1.06,9,9,0,0,1,3.44.6Zm-30.64,14h-3V33.67l8.32,7.51V34.28h3.1V48.73l-8.41-7.84v7.38Zm9.79,0v-14h6a3.36,3.36,0,0,1,2.09,1,3.29,3.29,0,0,1,.93,2.12,3.49,3.49,0,0,1-1.63,3.19A3.68,3.68,0,0,1,61.49,44a4.28,4.28,0,0,1-1.08,2.92,3.87,3.87,0,0,1-2.72,1.34Z"/></svg>