<svg id="Layer_2" data-name="Layer 2" xmlns="http://www.w3.org/2000/svg" viewBox="0 0 114 59"><defs><style>.cls-1{fill:#f58a1f;}.cls-2{fill:#fff;fill-rule:evenodd;}</style></defs><title>Artboard 641</title><rect class="cls-1" x="1" y="1" width="110" height="55" rx="6" ry="6"/><path class="cls-2" d="M21.23,33.28H18.14V29.4c0-.78-.34-1.38-1-1.4s-1,.65-1,1.33v4H13.06V29.74A4.37,4.37,0,0,1,13.9,27a4.19,4.19,0,0,1,3-1.59,4,4,0,0,1,3,1.06,3.92,3.92,0,0,1,1.35,2.65Zm31.62-9.4a5.34,5.34,0,0,0,0-1.3,1.67,1.67,0,0,0-.89-1,1.59,1.59,0,0,0-2,.84,4.83,4.83,0,0,0-.1,1.54c0,3,0,6.46,0,9.3h3.09C52.85,30.35,52.85,26.92,52.85,23.88Zm10,3.06a4.09,4.09,0,0,0-.94,2.27,4.13,4.13,0,0,0,3.69,4.41,4.12,4.12,0,0,0,2.94-.89A4.08,4.08,0,0,0,70,30.34,12.74,12.74,0,0,0,70,28.48V22.86a1.51,1.51,0,0,0-1-1.27,1.57,1.57,0,0,0-2.11,1.51c0,.63,0,2.49,0,2.49A4,4,0,0,0,62.81,26.94Zm3,.77c.68-.12,1,.81,1.08,1.52.07.95-.26,2-.84,2.15-.8.15-1.19-1.06-1.13-2C65,28.68,65.25,27.82,65.84,27.71Zm-24.58,0a1.61,1.61,0,0,0-.82-2.18,1.72,1.72,0,0,0-.75-.1c-.8.08-1.15.71-1.47,1.28s-1.11,2-1.11,2V26.85a1.5,1.5,0,0,0-1.61-1.41A1.55,1.55,0,0,0,34,27v6.29h3.11V30.82l1.64,2.46h2.42c.66,0,.73-.57.47-1-.48-.73-1.64-2.45-1.64-2.45ZM31,25.76a4.14,4.14,0,0,0-4.39.87,4,4,0,0,0-1.21,2.58,3.91,3.91,0,0,0,1.18,3.21A3.87,3.87,0,0,0,29,33.62a4.11,4.11,0,0,0,2.41-.51,4,4,0,0,0,1.74-1.93,3.68,3.68,0,0,0,.34-1.25H30.41c-.07.66-.36,1.47-1,1.47s-.95-.92-1-1.69a3,3,0,0,1,.34-1.59.89.89,0,0,1,.65-.43.87.87,0,0,1,.7.53,2.29,2.29,0,0,1,.27.94h3.11A4.08,4.08,0,0,0,31,25.76Zm17.36.89a4,4,0,0,0-3.13-1.21A4,4,0,0,0,41.67,28a4,4,0,0,0,1.25,4.75,4.13,4.13,0,0,0,2.22.87,3.84,3.84,0,0,0,2.17-.46,3.41,3.41,0,0,0,2-2.77H46.51c-.26.41-.52,1-1.11,1s-.83-.85-.92-1.4h4.82A4,4,0,0,0,48.32,26.65Zm-2,2.15H44.53c.06-.67.72-1.52,1.35-1A1.82,1.82,0,0,1,46.34,28.8Zm9.28-2.94a4.06,4.06,0,0,0-1.11.77,3.94,3.94,0,0,0-1.21,2.53,4,4,0,0,0,1.33,3.4,4.08,4.08,0,0,0,2.92,1.06,3.94,3.94,0,0,0,2.75-1.23,4.08,4.08,0,0,0-4.68-6.53Zm1.64,1.86c.83-.17,1.17,1.14,1.11,2.1,0,.74-.39,1.48-.84,1.57a1,1,0,0,1-.27,0c-.61-.1-.93-1.19-.87-2.07a2.21,2.21,0,0,1,.55-1.45A.77.77,0,0,1,57.26,27.71Zm19-1.88a3.94,3.94,0,0,0-2-.39,4.16,4.16,0,0,0-3.81,4.48,4.08,4.08,0,0,0,5.09,3.57,3.56,3.56,0,0,0,2.8-3.11H75.58c-.25.42-.5,1-1.08,1s-.84-.82-.92-1.4H78.4A3.84,3.84,0,0,0,76.23,25.83Zm-.81,3H73.63c.11-.57.41-1.26,1.09-1.12C75.12,27.79,75.35,28.37,75.42,28.82Zm4.47-2a4.07,4.07,0,0,0,.31,5.76,4.12,4.12,0,0,0,3,1A4.14,4.14,0,0,0,87,29.26a4,4,0,0,0-.46-1.57,4,4,0,0,0-3.9-2.22A4.08,4.08,0,0,0,79.9,26.82Zm2.94.89c.66-.11,1,.78,1.08,1.42.1.95-.22,2.13-.84,2.24a.84.84,0,0,1-.84-.51,3,3,0,0,1,.27-3A.73.73,0,0,1,82.84,27.71Zm12.75,1.45a3.92,3.92,0,0,0-1.35-2.65,4,4,0,0,0-3-1.06,4.18,4.18,0,0,0-3,1.59,4.37,4.37,0,0,0-.84,2.7v3.54h3.11v-4c0-.68.4-1.35,1-1.33s1,.62,1,1.4v3.88h3.09Zm-70.67-.27a11.38,11.38,0,0,0-.06-1.47,1.89,1.89,0,0,0-.62-1.08c-.21-.21-.55-.46-.55-.77s.3-.54.51-.75a5.41,5.41,0,0,0,.63-.65A1.81,1.81,0,0,0,24.58,22a1.88,1.88,0,0,0-1.35-.48,1.73,1.73,0,0,0-1.59,1.81,2,2,0,0,0,.87,1.47c.22.22.54.54.53.82s-.32.53-.53.75A2.57,2.57,0,0,0,22,27a5.22,5.22,0,0,0-.18,1.83v4.41h3.11Zm71.37,3.36h1v.13h-.4v.9h-.16v-.9h-.39Zm2,0h.15v1h-.16v-.8l-.35.4h0l-.36-.4v.8h-.16v-1h.16l.38.42Z"/></svg>