<svg id="Layer_2" data-name="Layer 2" xmlns="http://www.w3.org/2000/svg" viewBox="0 0 114 59"><defs><style>.cls-1{fill:#ed1c24;}.cls-2{fill:#fff;}</style></defs><title>Artboard 7 copy</title><rect class="cls-1" x="0.95" y="1" width="110" height="55" rx="6" ry="6"/><path class="cls-2" d="M19.64,38.74a7.49,7.49,0,0,0,1-.27,4.38,4.38,0,0,0,2.6-3,6,6,0,0,0-1.38-5.81,14.67,14.67,0,0,0-2.47-2.05,8.44,8.44,0,0,1-1.92-1.72A3,3,0,0,1,17,23.24a1.33,1.33,0,0,1,1.7-1.05,1.23,1.23,0,0,1,.83.75,4.37,4.37,0,0,1,.31,1.57c0,.18,0,.37,0,.57h3.14c0-.27,0-.54,0-.81a8.64,8.64,0,0,0-.48-2.67,3.7,3.7,0,0,0-2.71-2.45l-.2-.05a14.27,14.27,0,0,1,10.36-4.8,14.13,14.13,0,0,1,11.32,4.82l-.31.08a4.18,4.18,0,0,0-2.21,1.55,9.36,9.36,0,0,0-1.66,3.5,19.11,19.11,0,0,0-.55,5.93,15.37,15.37,0,0,0,.87,4.56,7.67,7.67,0,0,0,2,3.2,4.82,4.82,0,0,0,.76.55c.26.15.55.26.86.4a14.58,14.58,0,0,1-21.38-.16Zm12.08-19.2v7.72H28.12V19.55H24.78c0,.08,0,.15,0,.22q0,9.37,0,18.74c0,.2.06.25.25.25H27.9l.24,0v-8.3h3.6v.31c0,2.58,0,5.15,0,7.73,0,.24.07.28.29.28h3.06V19.54Z"/><path class="cls-2" d="M54.33,26.66c0,.27-.09.53-.12.8l-.75,5.23-.78,5.45c0,.32,0,.32-.36.32H49.88c-.15,0-.22,0-.24-.2-.15-1.2-.32-2.39-.47-3.58l-.55-4.18-.52-3.89-.56-4.2L47.21,20a.73.73,0,0,1,0-.12h3l1.2,10.91h.08l1.62-10.92h3.05l1.48,10.92h.07c0-.11.05-.21.07-.32q.29-2.37.58-4.74L59,21.09c0-.37.09-.74.13-1.11,0-.12.05-.18.18-.17H74c0,.1,0,.18,0,.27q0,9,0,18.1c0,.21-.05.28-.27.28-.95,0-1.89,0-2.84,0-.23,0-.28-.07-.28-.29q0-7.57,0-15.15c0-.35,0-.35-.35-.35H67.78c-.33,0-.33,0-.33.32q0,7.51,0,15c0,.51.07.44-.45.45-.88,0-1.76,0-2.64,0-.22,0-.29-.06-.29-.29q0-6.94,0-13.87c0-.42,0-.83,0-1.25s0-.38-.37-.38H61.32c-.13,0-.18,0-.19.18q-.44,3.46-.9,6.92-.5,3.85-1,7.7c0,.27-.07.53-.1.8s-.08.19-.21.19H56.2c-.14,0-.19,0-.21-.19q-.48-3.59-1-7.18l-.58-4.24a1.71,1.71,0,0,0,0-.19Z"/><path class="cls-2" d="M83.4,19.83h4.4V38.44l-.26,0c-.82,0-1.64,0-2.46,0-.23,0-.29-.06-.29-.29q0-6.55,0-13.09v-.28h-.07c0,.23-.09.46-.13.68l-1.85,11c-.1.59-.21,1.17-.3,1.76,0,.15-.09.2-.23.2h-1.5c-.15,0-.21-.06-.23-.2q-.56-3.41-1.12-6.82l-1.08-6.51a.16.16,0,0,0-.1-.12v.26q0,6.55,0,13.09c0,.3,0,.3-.29.3-.64,0-1.28,0-1.92,0-.22,0-.29,0-.29-.28q0-4.64,0-9.27,0-4.39,0-8.78v-.3H80.2l1.53,9.53h.08Z"/><path class="cls-2" d="M92.91,27.46h3.14v3H92.91v5.1h4.45c0,.09,0,.16,0,.22,0,.8,0,1.61,0,2.41,0,.17,0,.23-.22.23H89.73l-.21,0V19.84h7.65v2.83H92.91Z"/><path class="cls-2" d="M39.81,29a12.92,12.92,0,0,1,.74-4.84,5.5,5.5,0,0,1,.74-1.28,1.34,1.34,0,0,1,1.46-.55,1.54,1.54,0,0,1,.86.64,6.06,6.06,0,0,1,.93,2.25A15.41,15.41,0,0,1,45,29.41a11.71,11.71,0,0,1-.89,4.45A4.52,4.52,0,0,1,43.38,35a1.26,1.26,0,0,1-1.91.07,3.68,3.68,0,0,1-.92-1.48,11.63,11.63,0,0,1-.66-3.22C39.84,29.84,39.82,29.33,39.81,29Z"/><path class="cls-2" d="M15.82,28.69c.31.24.6.5.92.73.79.6,1.61,1.17,2.38,1.8a3,3,0,0,1,1.12,2.58A2.33,2.33,0,0,1,19.9,35a1.42,1.42,0,0,1-2,.46,2.94,2.94,0,0,1-1-1.11,8.24,8.24,0,0,1-.93-3c-.12-.87-.16-1.76-.24-2.64Z"/></svg>