<svg id="Layer_2" data-name="Layer 2" xmlns="http://www.w3.org/2000/svg" viewBox="0 0 114 59"><defs><style>.cls-1,.cls-2{fill:#fff;}.cls-1{fill-rule:evenodd;}</style></defs><title>Artboard 801</title><rect x="1" y="1" width="110" height="55" rx="6" ry="6"/><path d="M20,33h0Z"/><path class="cls-1" d="M39.28,13.92h6a7.67,7.67,0,0,0-1.75,9.4A8.68,8.68,0,0,0,48.68,27c2.1.68,4,1.21,4,3.21,0,1.37-1.23,2.37-2.89,2.26A8.34,8.34,0,0,1,45,30c-1.21,3.34-4.34,5.28-8.89,5.28-5.83,0-9.12-3.47-9.12-8.68V13.92h6.27V26.57a3.2,3.2,0,0,0,3,3.33h0a3.2,3.2,0,0,0,3-3.33V13.92Z"/><path class="cls-1" d="M64.48,13.92a8.47,8.47,0,0,1,5.33,1.88V14.1h6v21h-6V33.45a8.57,8.57,0,0,1-11.52-.78,6.49,6.49,0,0,0,0-6.87,7.59,7.59,0,0,0-4.52-3.3c-2.37-.81-4.62-1.24-4.62-3.46a2.5,2.5,0,0,1,2.64-2.33A7.56,7.56,0,0,1,56.54,19a9,9,0,0,1,7.94-5.09Zm1.28,5.41c2.51,0,4.4,2.36,4.4,5.28s-1.86,5.28-4.4,5.28-4.4-2.36-4.4-5.28,1.89-5.28,4.4-5.28Z"/><path class="cls-2" d="M52,44.9V40.58h1.13V41a1.76,1.76,0,0,1,1.43-.65A1.36,1.36,0,0,1,56,41.48a5.48,5.48,0,0,1,0,.76V44.9H54.9v-2a2.15,2.15,0,0,0-.17-1.05.65.65,0,0,0-.58-.26.91.91,0,0,0-.44.11.93.93,0,0,0-.33.31,1.06,1.06,0,0,0-.15.35,2.85,2.85,0,0,0,0,.6V44.9Z"/><path class="cls-2" d="M60,42.31a1,1,0,0,0-.29-.63.93.93,0,0,0-.65-.21,1,1,0,0,0-.65.21,1,1,0,0,0-.31.63Zm1.2.77H58a1.16,1.16,0,0,0,.33.71,1,1,0,0,0,.69.23,1.16,1.16,0,0,0,.57-.13,1.07,1.07,0,0,0,.4-.39l.86.69a2.2,2.2,0,0,1-.7.66,2.29,2.29,0,0,1-1.15.28,2.1,2.1,0,0,1-1.61-.63,2.68,2.68,0,0,1,0-3.4A2.07,2.07,0,0,1,59,40.43a2,2,0,0,1,1.58.62,2.39,2.39,0,0,1,.58,1.7s0,.08,0,.13,0,.11,0,.2Z"/><path class="cls-2" d="M62.27,41.56h-.56v-1h.56V39.32h1.16v1.26h1.11v1H63.43v2.07c0,.57.91.42,1.11.25v.91a1.85,1.85,0,0,1-1.11.25,1,1,0,0,1-1.16-1V41.56Z"/><polygon class="cls-2" points="69.27 40.58 69.98 43.25 70.83 40.58 72.09 40.58 70.71 44.9 69.47 44.9 68.63 42.21 67.81 44.9 66.58 44.9 65.2 40.58 66.46 40.58 67.29 43.24 68.01 40.58 69.27 40.58 69.27 40.58"/><path class="cls-2" d="M75.79,42.75a1.15,1.15,0,0,0-.31-.85,1.13,1.13,0,0,0-.84-.31,1.12,1.12,0,0,0-.84.31,1.32,1.32,0,0,0,0,1.69,1.11,1.11,0,0,0,.84.32,1.13,1.13,0,0,0,.84-.32,1.15,1.15,0,0,0,.31-.85Zm1.3,0a2.2,2.2,0,0,1-.69,1.66,2.67,2.67,0,0,1-3.51,0,2.32,2.32,0,0,1,0-3.32,2.66,2.66,0,0,1,3.51,0,2.2,2.2,0,0,1,.69,1.67Z"/><path class="cls-2" d="M78.94,41.18a1.75,1.75,0,0,1,1.52-.71v1.2c-.81,0-1.43.43-1.45,1.62l0,1.6H77.82V40.58H79l0,.6Z"/><polygon class="cls-2" points="81.24 38.85 82.39 38.85 82.39 42.27 83.89 40.58 85.31 40.58 83.73 42.22 85.39 44.9 84.1 44.9 82.95 43.04 82.39 43.62 82.39 44.9 81.24 44.9 81.24 38.85 81.24 38.85"/></svg>