<svg id="Layer_2" data-name="Layer 2" xmlns="http://www.w3.org/2000/svg" viewBox="0 0 114 59"><defs><style>.cls-1{fill:#38ce7f;}.cls-2,.cls-3{fill:#fff;}.cls-3{fill-rule:evenodd;}</style></defs><title>Artboard 7</title><rect class="cls-1" x="1" y="1" width="110" height="55" rx="6" ry="6"/><rect class="cls-2" x="62.22" y="15.06" width="4.52" height="23.86"/><path class="cls-3" d="M26.51,15.06H31V23a2.85,2.85,0,0,1,1.45-.32h3.47a4.93,4.93,0,0,1,4.91,4.91V38.92H36.33V29.27a1.5,1.5,0,0,0-1.49-1.49H32.52A1.5,1.5,0,0,0,31,29.27v9.65H26.51V15.06Z"/><path class="cls-3" d="M58.53,22.65V34a4.93,4.93,0,0,1-4.91,4.92H49.23A4.93,4.93,0,0,1,44.32,34V22.65h4.52v9.83A1.5,1.5,0,0,0,50.33,34h2.19A1.5,1.5,0,0,0,54,32.47V22.65Z"/><path class="cls-3" d="M84.64,22.65V34a4.93,4.93,0,0,1-4.91,4.92H75.33A4.93,4.93,0,0,1,70.42,34V22.65h4.52v9.83A1.5,1.5,0,0,0,76.43,34h2.19a1.5,1.5,0,0,0,1.49-1.49V22.65Z"/></svg>