<svg id="Layer_2" data-name="Layer 2" xmlns="http://www.w3.org/2000/svg" viewBox="0 0 114 59"><defs><style>.cls-1{fill:#bd090b;}.cls-2{fill:#fff;}</style></defs><title>whiteArtboard 10</title><rect class="cls-1" x="1" y="1" width="110" height="55" rx="6" ry="6"/><g id="V1.1"><g id="newOnboarding---homePage---newUser"><g id="streamingspider"><g id="Page-1"><path id="Shape" class="cls-2" d="M28.2,38.35c-1.16.2-2.33.27-3.54.43L21,27.76V39.25c-1.15.13-2.21.29-3.3.45V18.65h3.08l4.21,12v-12H28.2Zm6.37-12c1.26,0,3.18-.06,4.34-.06v3.29c-1.44,0-3.12,0-4.34.06v4.89c1.91-.12,3.81-.28,5.73-.35v3.17l-9,.72V18.65h9v3.29H34.57Zm17.78-4.42H49V37.07c-1.1,0-2.19,0-3.24,0V21.94H42.39V18.65h10Zm5.26,4.2H62v3.28H57.61v7.47H54.43V18.65h9v3.29H57.61ZM68.74,34c1.84,0,3.71.18,5.51.29v3.25c-2.9-.19-5.79-.37-8.75-.44V18.65h3.24ZM77,37.77c1,.06,2.13.13,3.18.25V18.65H77ZM94.35,18.65l-4.11,10,4.11,11c-1.22-.16-2.43-.39-3.65-.59L88.38,33,86,38.62c-1.18-.21-2.31-.27-3.48-.44l4.17-9.64-3.77-9.89h3.48l2.13,5.53,2.27-5.53Z"/></g></g></g></g></svg>